<svg xmlns="http://www.w3.org/2000/svg" viewBox="0 0 64 64" role="img" aria-label="Google ADK">
  <rect width="64" height="64" rx="18" fill="#fff"/>
  <path d="M32 14a18 18 0 0 1 12.6 5.1l-5 5A10.9 10.9 0 0 0 32 21a11 11 0 0 0-9.6 5.6l-5.9-4.5A18 18 0 0 1 32 14Z" fill="#EA4335"/>
  <path d="M16.5 22.1l5.9 4.5A11 11 0 0 0 22.4 37l-5.9 4.6a18 18 0 0 1 0-19.5Z" fill="#FBBC05"/>
  <path d="M32 50a18 18 0 0 1-15.5-8.4l5.9-4.6A11 11 0 0 0 32 43c5 0 8.6-2.6 10-6.5H32V30h17.7c.2 1 .3 2.1.3 3.3C50 43.1 42.6 50 32 50Z" fill="#4285F4"/>
  <path d="M42 36.5c-.8 2.3-2.5 4.1-4.8 5.2l5.5 4.3c3.3-2 5.8-5.4 6.8-9.5H42Z" fill="#34A853"/>
</svg>
